<svg width="3210" height="1003" viewBox="0 0 3210 1003" fill="none" xmlns="http://www.w3.org/2000/svg">
<circle cx="94.5283" cy="907.529" r="94.5283" transform="rotate(-90 94.5283 907.529)" fill="#F06939"/>
<circle cx="518.016" cy="94.5283" r="94.5283" transform="rotate(-90 518.016 94.5283)" fill="#F06939"/>
<circle cx="141.793" cy="567.171" r="141.792" transform="rotate(-90 141.793 567.171)" fill="#F06939"/>
<circle cx="480.751" cy="424.832" r="141.792" transform="rotate(-90 480.751 424.832)" fill="#F06939"/>
<circle cx="189.058" cy="189.058" r="189.057" transform="rotate(-90 189.058 189.058)" fill="#F06939"/>
<circle cx="423.487" cy="812.944" r="189.057" transform="rotate(-90 423.487 812.944)" fill="#F06939"/>
<circle cx="752.447" cy="907.529" r="94.5283" transform="rotate(-90 752.447 907.529)" fill="#F06939"/>
<circle cx="1175.93" cy="94.5283" r="94.5283" transform="rotate(-90 1175.93 94.5283)" fill="#F06939"/>
<circle cx="779.711" cy="587.171" r="141.792" transform="rotate(-90 779.711 587.171)" fill="#F06939"/>
<circle cx="1128.67" cy="434.832" r="141.792" transform="rotate(-90 1128.67 434.832)" fill="#F06939"/>
<circle cx="846.976" cy="189.058" r="189.057" transform="rotate(-90 846.976 189.058)" fill="#F06939"/>
<circle cx="1081.41" cy="812.944" r="189.057" transform="rotate(-90 1081.41 812.944)" fill="#F06939"/>
<path d="M2714.64 806.877V527.66H2836.7L3085.6 681.628V527.66H3209.26V806.877H3087.2L2838.3 652.909V806.877H2714.64Z" fill="#E9E9E7"/>
<path d="M2421.58 813.259C2256.71 813.259 2174.27 760.208 2174.27 654.105V527.66H2297.93V650.117C2297.93 697.716 2339.14 721.516 2421.58 721.516C2504.01 721.516 2545.23 697.716 2545.23 650.117V527.66H2668.88V654.105C2668.88 760.208 2586.45 813.259 2421.58 813.259Z" fill="#E9E9E7"/>
<path d="M1648.2 806.877V527.66H2045.89C2074.34 527.66 2096.15 534.042 2111.3 546.806C2126.46 559.305 2134.04 576.589 2134.04 598.661C2134.04 615.68 2128.85 629.508 2118.48 640.145C2108.11 650.781 2091.89 658.094 2069.82 662.083V670.061C2094.02 672.188 2112.23 679.102 2124.47 690.802C2136.7 702.237 2142.81 717.128 2142.81 735.477V806.877H2013.58V739.466C2013.58 734.679 2012.11 730.823 2009.19 727.898C2006.26 724.973 2002.28 723.511 1997.22 723.511H1771.86V806.877H1648.2ZM1771.86 647.723H1989.25C1994.3 647.723 1998.29 646.128 2001.21 642.937C2004.14 639.746 2005.6 635.491 2005.6 630.172C2005.6 624.322 2004 619.935 2000.81 617.009C1997.62 614.084 1993.77 612.622 1989.25 612.622H1771.86V647.723Z" fill="#E9E9E7"/>
<path d="M2714.82 484.761V205.545H2838.47V296.889H3085.78V205.545H3209.43V484.761H3085.78V385.44H2838.47V484.761H2714.82Z" fill="#E9E9E7"/>
<path d="M2174.02 484.762V408.177L2391.01 360.311C2421.33 353.663 2445.79 347.946 2464.41 343.16C2483.29 338.373 2497.78 334.251 2507.89 330.794C2517.99 327.337 2524.77 324.146 2528.23 321.221C2531.95 318.296 2533.81 315.238 2533.81 312.047C2533.81 306.994 2530.62 302.873 2524.24 299.682C2518.12 296.49 2509.75 293.964 2499.11 292.103C2488.74 290.241 2477.04 289.045 2464.01 288.513C2450.98 287.715 2437.68 287.316 2424.12 287.316C2353.65 287.316 2278.26 297.953 2197.96 319.227L2174.02 233.866C2198.22 226.686 2224.28 220.57 2252.2 215.518C2280.12 210.199 2308.71 206.211 2337.96 203.551C2367.48 200.892 2396.33 199.562 2424.52 199.562C2448.19 199.562 2471.59 200.759 2494.72 203.152C2517.86 205.28 2539.53 208.737 2559.74 213.523C2579.95 218.044 2597.77 224.027 2613.19 231.473C2628.88 238.653 2641.11 247.428 2649.89 257.799C2658.66 268.17 2663.05 280.136 2663.05 293.698C2663.05 309.122 2656.67 322.95 2643.9 335.182C2631.14 347.414 2611.33 358.716 2584.47 369.087C2557.61 379.458 2522.91 389.696 2480.36 399.801L2471.99 401.795H2668.63L2664.65 484.762H2174.02Z" fill="#E9E9E7"/>
<path d="M1648.26 484.761V396.21H1837.33V298.085L1661.83 327.602V237.455L1862.46 205.545H1960.99V396.21H2142.88V484.761H1648.26Z" fill="#E9E9E7"/>
</svg>
