<svg width="5222" height="2116" viewBox="0 0 5222 2116" fill="none" xmlns="http://www.w3.org/2000/svg">
<rect width="5222" height="2116" fill="#111111"/>
<circle cx="699.326" cy="1464.27" r="94.5283" transform="rotate(-90 699.326 1464.27)" fill="#F06939"/>
<circle cx="1122.81" cy="651.27" r="94.5283" transform="rotate(-90 1122.81 651.27)" fill="#F06939"/>
<circle cx="746.591" cy="1123.91" r="141.792" transform="rotate(-90 746.591 1123.91)" fill="#F06939"/>
<circle cx="1085.55" cy="981.573" r="141.792" transform="rotate(-90 1085.55 981.573)" fill="#F06939"/>
<circle cx="793.855" cy="745.799" r="189.057" transform="rotate(-90 793.855 745.799)" fill="#F06939"/>
<circle cx="1028.29" cy="1369.69" r="189.057" transform="rotate(-90 1028.29 1369.69)" fill="#F06939"/>
<circle cx="1357.25" cy="1464.27" r="94.5283" transform="rotate(-90 1357.25 1464.27)" fill="#F06939"/>
<circle cx="1780.73" cy="651.27" r="94.5283" transform="rotate(-90 1780.73 651.27)" fill="#F06939"/>
<circle cx="1384.51" cy="1143.91" r="141.792" transform="rotate(-90 1384.51 1143.91)" fill="#F06939"/>
<circle cx="1733.47" cy="991.573" r="141.792" transform="rotate(-90 1733.47 991.573)" fill="#F06939"/>
<circle cx="1451.77" cy="745.799" r="189.057" transform="rotate(-90 1451.77 745.799)" fill="#F06939"/>
<circle cx="1686.2" cy="1369.69" r="189.057" transform="rotate(-90 1686.2 1369.69)" fill="#F06939"/>
<path d="M3319.44 1363.62V1084.4H3441.5L3690.4 1238.37V1084.4H3814.05V1363.62H3692L3443.09 1209.65V1363.62H3319.44Z" fill="#E9E9E7"/>
<path d="M3026.38 1370C2861.51 1370 2779.07 1316.95 2779.07 1210.85V1084.4H2902.72V1206.86C2902.72 1254.46 2943.94 1278.26 3026.38 1278.26C3108.81 1278.26 3150.03 1254.46 3150.03 1206.86V1084.4H3273.68V1210.85C3273.68 1316.95 3191.25 1370 3026.38 1370Z" fill="#E9E9E7"/>
<path d="M2253 1363.62V1084.4H2650.68C2679.14 1084.4 2700.94 1090.78 2716.1 1103.55C2731.26 1116.05 2738.84 1133.33 2738.84 1155.4C2738.84 1172.42 2733.65 1186.25 2723.28 1196.89C2712.91 1207.52 2696.69 1214.84 2674.62 1218.82V1226.8C2698.82 1228.93 2717.03 1235.84 2729.26 1247.54C2741.5 1258.98 2747.61 1273.87 2747.61 1292.22V1363.62H2618.37V1296.21C2618.37 1291.42 2616.91 1287.56 2613.99 1284.64C2611.06 1281.71 2607.07 1280.25 2602.02 1280.25H2376.65V1363.62H2253ZM2376.65 1204.46H2594.04C2599.1 1204.46 2603.08 1202.87 2606.01 1199.68C2608.93 1196.49 2610.4 1192.23 2610.4 1186.91C2610.4 1181.06 2608.8 1176.68 2605.61 1173.75C2602.42 1170.83 2598.56 1169.36 2594.04 1169.36H2376.65V1204.46Z" fill="#E9E9E7"/>
<path d="M3319.62 1041.5V762.286H3443.27V853.63H3690.58V762.286H3814.23V1041.5H3690.58V942.181H3443.27V1041.5H3319.62Z" fill="#E9E9E7"/>
<path d="M2778.82 1041.5V964.918L2995.81 917.053C3026.13 910.405 3050.59 904.687 3069.21 899.901C3088.09 895.114 3102.58 890.992 3112.68 887.535C3122.79 884.078 3129.57 880.887 3133.03 877.962C3136.75 875.037 3138.61 871.979 3138.61 868.788C3138.61 863.736 3135.42 859.614 3129.04 856.423C3122.92 853.232 3114.54 850.705 3103.91 848.844C3093.54 846.983 3081.84 845.786 3068.81 845.254C3055.78 844.456 3042.48 844.057 3028.92 844.057C2958.45 844.057 2883.06 854.694 2802.75 875.968L2778.82 790.607C2803.02 783.428 2829.08 777.311 2857 772.259C2884.92 766.941 2913.51 762.952 2942.76 760.293C2972.28 757.633 3001.13 756.304 3029.32 756.304C3052.98 756.304 3076.39 757.5 3099.52 759.894C3122.66 762.021 3144.33 765.478 3164.54 770.265C3184.75 774.785 3202.56 780.768 3217.99 788.214C3233.68 795.394 3245.91 804.169 3254.68 814.54C3263.46 824.911 3267.85 836.878 3267.85 850.44C3267.85 865.863 3261.47 879.691 3248.7 891.923C3235.94 904.155 3216.13 915.457 3189.27 925.828C3162.41 936.199 3127.71 946.437 3085.16 956.542L3076.78 958.536H3273.43L3269.44 1041.5H2778.82Z" fill="#E9E9E7"/>
<path d="M2253.06 1041.5V952.951H2442.13V854.826L2266.62 884.344V794.197L2467.26 762.286H2565.78V952.951H2747.67V1041.5H2253.06Z" fill="#E9E9E7"/>
</svg>
